<?xml version="1.0" standalone="no"?>
<!DOCTYPE svg PUBLIC "-//W3C//DTD SVG 20010904//EN"
 "http://www.w3.org/TR/2001/REC-SVG-20010904/DTD/svg10.dtd">
<svg version="1.0" xmlns="http://www.w3.org/2000/svg"
 width="280.000000pt" height="280.000000pt" viewBox="0 0 280.000000 280.000000"
 preserveAspectRatio="xMidYMid meet">
<metadata>
Created by potrace 1.11, written by Peter Selinger 2001-2013
</metadata>
<g transform="translate(0.000000,280.000000) scale(0.100000,-0.100000)"
fill="#000000" stroke="none">
<path d="M0 2135 c0 -600 2 -665 16 -673 15 -8 15 -10 0 -15 -9 -4 -16 -17
-16 -29 l1 -23 20 24 c11 13 23 21 26 17 4 -4 -5 -17 -20 -30 l-27 -23 2 -167
c2 -163 2 -166 22 -160 29 9 47 25 40 35 -11 18 -13 69 -3 69 6 0 7 6 2 13 -7
12 -5 55 4 70 3 4 10 4 16 -1 14 -11 52 7 53 26 1 6 2 21 3 33 0 11 5 18 10
15 4 -3 11 18 15 47 8 70 8 89 -3 83 -4 -3 -8 7 -7 23 1 17 6 27 12 24 8 -3 9
8 4 36 -8 44 3 56 44 45 28 -7 106 13 106 26 0 6 -13 10 -30 10 -16 0 -30 -4
-30 -10 0 -5 -11 -10 -25 -10 -26 0 -33 14 -14 26 21 13 79 22 85 13 10 -17
24 -9 30 16 3 14 15 30 26 36 11 6 17 13 14 16 -3 3 -12 0 -20 -6 -8 -7 -17
-8 -20 -3 -11 18 19 31 54 23 28 -5 31 -8 16 -14 -12 -5 -17 -14 -13 -27 3
-12 -1 -24 -11 -30 -15 -8 -14 -9 6 -10 12 0 22 -5 22 -11 0 -7 -10 -9 -27 -4
l-26 6 24 -25 c21 -22 25 -23 33 -8 12 23 28 33 44 27 7 -3 12 4 12 16 0 15
-5 19 -18 15 -9 -3 -24 -1 -32 4 -13 9 -13 10 0 10 8 0 21 13 28 29 13 28 25
33 49 18 6 -4 15 -3 18 3 4 6 14 8 23 5 10 -2 59 -6 110 -7 52 -1 96 -7 99
-12 4 -5 7 -24 8 -42 0 -26 -3 -31 -22 -31 -16 0 -23 5 -23 18 0 15 -4 17 -24
9 -13 -5 -27 -7 -30 -4 -3 2 -2 -2 4 -8 5 -7 10 -29 10 -50 0 -36 2 -38 31
-38 20 0 28 4 23 12 -4 7 -3 8 4 4 7 -4 10 -22 7 -41 -2 -19 0 -37 5 -40 6 -4
10 -14 10 -24 0 -10 6 -24 14 -30 10 -9 12 -20 6 -42 -5 -16 -6 -46 -2 -67 6
-34 7 -32 13 28 3 36 2 69 -3 75 -4 5 -8 16 -8 25 0 13 1 13 10 0 8 -12 10 -9
10 12 0 15 4 38 10 53 7 17 7 24 0 20 -6 -3 -13 1 -16 10 -7 17 11 124 28 168
9 23 13 25 25 15 13 -10 15 -9 11 7 -2 11 -9 19 -16 18 -6 -2 -9 4 -6 12 7 18
21 19 27 3 3 -7 6 -3 6 9 1 12 -5 24 -11 26 -8 3 -6 6 4 6 14 1 17 9 14 44 -2
24 1 45 8 49 8 6 8 8 -1 8 -7 0 -13 7 -13 16 0 8 -4 13 -9 9 -28 -17 -31 67
-5 130 7 18 6 18 -9 7 -9 -8 -24 -33 -33 -58 -19 -51 -38 -60 -22 -11 5 17 12
41 15 52 6 25 40 105 53 125 5 8 16 29 24 46 8 17 23 38 34 45 10 8 20 18 20
24 1 16 22 18 22 1 0 -9 5 -16 10 -16 6 0 10 5 10 10 0 6 9 10 20 10 11 0 23
7 26 15 4 8 14 15 24 15 18 0 90 64 108 95 5 11 12 13 16 7 3 -5 -5 -21 -19
-33 -28 -28 -31 -39 -10 -39 18 0 19 -11 3 -30 -11 -12 -10 -12 5 0 16 12 20
12 27 -1 6 -8 5 -18 0 -23 -15 -15 -12 -22 12 -23 13 -1 24 -7 26 -13 2 -5 10
-10 18 -10 8 0 26 -11 40 -25 36 -36 82 -33 160 11 35 20 66 40 70 45 3 5 14
9 24 9 12 0 17 5 14 13 -3 8 11 21 36 33 22 10 40 22 40 27 0 12 51 -4 96 -30
47 -26 123 -105 171 -176 18 -26 40 -47 49 -47 12 0 14 4 7 13 -6 6 -13 26
-17 42 -6 28 -5 29 9 11 8 -11 15 -26 15 -33 0 -7 4 -13 10 -13 26 0 110 -221
96 -253 -3 -7 -7 -3 -11 10 -4 12 -13 24 -21 27 -16 6 -19 -10 -4 -19 5 -3 7
-12 4 -20 -4 -8 -10 -12 -15 -9 -5 3 -9 0 -9 -5 0 -6 6 -11 13 -11 8 0 8 -3
-2 -9 -12 -8 -12 -13 -3 -24 7 -8 14 -32 16 -53 2 -22 11 -70 20 -109 15 -64
23 -108 25 -127 1 -5 5 -8 11 -8 5 0 7 8 4 18 -5 19 10 -11 22 -43 6 -17 8
-15 14 15 4 19 11 50 15 68 6 25 4 32 -8 32 -8 0 -20 -7 -28 -16 -11 -13 -14
-12 -24 13 -8 19 -9 32 -2 41 15 19 55 14 67 -7 10 -19 7 -142 -4 -159 -3 -5
-4 -30 -2 -55 2 -33 -1 -47 -11 -51 -8 -3 -13 -11 -12 -18 9 -51 -29 -188 -51
-188 -6 0 -16 -15 -24 -33 -14 -30 -14 -31 -16 -7 l-2 25 -12 -27 c-9 -21 -15
-25 -24 -16 -13 13 -82 18 -82 6 0 -4 5 -8 10 -8 6 0 10 -5 10 -11 0 -5 -5 -7
-10 -4 -6 3 -24 -4 -41 -16 -27 -19 -29 -23 -15 -31 11 -6 13 -13 6 -21 -6 -7
-21 -25 -35 -41 -20 -26 -26 -28 -40 -16 -13 10 -13 15 -3 21 11 7 11 12 0 30
-13 20 -12 21 5 17 13 -4 19 0 20 14 1 10 9 25 17 34 31 30 20 62 -31 92 -25
15 -62 42 -80 59 -40 38 -48 39 -104 16 -33 -13 -46 -14 -60 -5 -26 16 -37 15
-69 -8 -33 -23 -87 -20 -153 8 -30 12 -40 13 -46 3 -5 -8 -23 -11 -52 -7 -24
2 -47 5 -51 5 -5 1 -8 10 -8 21 0 38 -32 23 -108 -49 -44 -42 -67 -51 -75 -28
-3 10 -9 10 -26 0 -28 -17 -26 -18 -71 26 -27 26 -38 44 -34 55 3 9 2 16 -4
16 -11 0 -25 37 -22 63 1 9 -4 17 -9 17 -6 0 -11 -21 -11 -49 0 -34 -4 -51
-15 -55 -10 -3 -15 -19 -15 -46 0 -22 -4 -40 -9 -40 -4 0 -6 23 -3 51 5 50 4
51 -17 40 -20 -11 -25 -26 -21 -65 1 -14 -3 -17 -16 -12 -11 4 -22 -1 -31 -14
-8 -11 -21 -20 -29 -20 -8 0 -14 -9 -14 -20 0 -16 6 -19 38 -18 20 0 42 5 49
10 9 7 11 1 6 -25 -4 -28 -2 -35 15 -39 18 -5 19 -12 14 -78 -5 -74 1 -89 37
-90 11 0 10 5 -4 20 -12 13 -15 27 -11 45 10 40 46 30 71 -20 11 -22 30 -56
43 -76 12 -20 22 -50 22 -68 0 -25 -7 -35 -40 -56 -22 -14 -46 -25 -54 -25 -8
0 -16 -5 -18 -10 -2 -6 -17 -13 -33 -16 -17 -2 -87 -20 -158 -39 -116 -32
-143 -35 -300 -40 -232 -6 -307 -14 -307 -32 0 -11 19 -12 108 -7 59 3 135 9
169 13 49 6 60 5 52 -5 -17 -21 -103 -34 -219 -34 -105 0 -110 -1 -110 -21 0
-20 3 -21 68 -15 37 4 76 10 87 13 20 6 20 5 1 -16 -16 -18 -30 -21 -88 -21
-59 0 -68 -2 -68 -18 0 -17 5 -18 45 -12 44 7 45 6 29 -12 -10 -10 -30 -18
-46 -18 l-28 0 0 -220 0 -220 621 0 c519 0 620 2 610 13 -6 8 -8 17 -4 21 9 8
-29 37 -43 32 -6 -3 -10 6 -8 19 1 13 -4 29 -11 35 -8 6 -11 18 -8 26 3 8 0
14 -7 14 -6 0 -8 5 -5 10 6 9 -7 14 -27 11 -4 0 -5 6 -2 14 4 8 -1 17 -10 21
-9 3 -16 10 -16 16 0 5 5 6 10 3 6 -3 10 -1 10 4 0 6 -5 11 -11 11 -6 0 -26
17 -45 37 -30 31 -33 38 -19 43 16 6 16 7 0 20 -14 11 -18 11 -25 0 -5 -9 -8
-4 -7 13 1 15 5 27 10 27 8 0 -9 33 -33 65 -14 19 -14 19 5 5 11 -8 23 -19 26
-24 4 -4 22 -18 41 -30 95 -57 148 -98 142 -107 -4 -6 2 -9 13 -7 23 4 96 -39
88 -52 -3 -6 1 -7 9 -4 17 6 22 -11 7 -20 -5 -3 -7 -15 -4 -26 4 -14 9 -17 17
-11 13 11 40 -1 34 -15 -1 -5 7 -10 20 -12 17 -3 21 -8 17 -22 -4 -13 0 -20
15 -25 11 -4 18 -11 14 -16 -5 -9 44 -2 55 7 1 1 13 -1 25 -6 13 -4 29 -5 36
0 7 4 19 6 27 3 11 -4 11 -8 1 -20 -8 -10 -8 -17 -1 -21 6 -4 13 -17 17 -29 4
-13 14 -21 26 -20 15 1 16 5 9 19 -5 10 -6 18 -1 18 5 0 17 19 28 42 10 23 29
52 42 65 13 13 20 28 17 33 -3 5 11 51 31 102 25 64 38 111 40 151 2 68 10 83
19 36 10 -60 10 -72 2 -162 -13 -137 -32 -224 -61 -267 l-26 -40 545 0 545 0
0 223 c0 165 -3 227 -12 236 -10 11 -10 13 0 7 9 -6 12 58 12 303 0 235 -3
311 -12 311 -9 0 -9 3 0 12 16 16 16 115 0 121 -10 4 -10 6 0 6 18 1 14 49 -5
60 -17 9 -17 10 0 16 15 7 17 26 17 209 l0 201 -29 28 c-16 15 -36 27 -45 27
-15 0 -15 -2 -1 -23 8 -13 28 -30 43 -36 25 -12 25 -14 9 -25 -18 -14 -63 -10
-73 5 -3 5 4 9 15 9 12 0 21 3 21 8 -1 14 -29 44 -37 39 -4 -3 -8 9 -9 26 -1
18 1 26 3 20 3 -7 13 -13 24 -13 10 0 19 6 19 13 0 6 5 4 11 -6 6 -9 15 -15
20 -11 5 3 8 0 7 -7 -2 -6 2 -13 8 -16 8 -3 12 22 13 80 1 75 -1 85 -18 90
-10 2 -25 17 -33 33 -9 19 -21 29 -36 29 -31 0 -63 42 -52 70 9 23 -4 45 -34
62 -16 9 -16 11 -2 16 9 4 16 2 16 -3 0 -6 5 -10 11 -10 5 0 8 4 5 8 -3 5 5 8
17 8 12 -1 25 -9 29 -18 4 -11 13 -15 23 -12 9 4 15 1 15 -7 0 -10 3 -10 12
-1 8 8 8 15 -3 29 -13 16 -12 17 2 5 9 -7 24 -9 33 -6 23 9 15 39 -10 38 -15
0 -20 5 -18 20 4 32 4 32 13 17 18 -28 30 1 28 63 -2 62 -2 64 -27 61 -19 -2
-25 -8 -23 -26 1 -13 -1 -18 -3 -11 -8 17 -25 15 -18 -3 4 -11 0 -15 -16 -15
-19 0 -20 -2 -10 -15 17 -21 9 -26 -14 -9 -13 9 -16 17 -9 26 5 7 11 32 12 56
1 31 -2 42 -13 42 -11 0 -15 11 -13 40 1 22 5 40 9 40 4 0 8 -6 8 -14 0 -9 7
-12 20 -9 11 3 20 1 20 -5 0 -6 -10 -12 -22 -14 -12 -2 -23 -9 -26 -17 -3 -8
1 -12 9 -9 8 3 20 -3 29 -13 8 -9 32 -19 52 -22 l36 -5 1 175 1 176 -87 -6
c-122 -9 -410 -18 -398 -13 6 2 117 10 248 17 l237 12 0 53 0 54 -802 0 -802
0 -23 -22 c-13 -12 -36 -23 -51 -24 -20 0 -28 -7 -30 -23 -2 -12 1 -28 7 -35
13 -15 5 -26 -20 -26 -20 0 -29 20 -29 61 0 20 -4 28 -11 23 -7 -4 -9 -22 -6
-45 5 -37 4 -39 -21 -39 -26 0 -27 2 -27 55 0 52 1 55 25 55 14 0 32 5 40 10
10 7 -32 10 -127 10 l-143 0 0 -26 c0 -14 4 -23 10 -19 5 3 10 13 10 21 0 8
10 14 25 14 29 0 31 -7 9 -31 -15 -17 -14 -20 5 -48 26 -36 26 -41 2 -41 -11
0 -29 12 -41 28 l-21 27 6 -27 c5 -25 3 -28 -23 -28 l-28 0 4 65 4 65 -87 0
c-69 0 -85 -3 -78 -12 13 -17 23 -107 13 -113 -22 -14 -40 9 -40 51 0 25 -5
44 -11 44 -7 0 -10 -17 -7 -45 l3 -45 -67 0 -67 0 6 34 c7 47 -4 86 -24 86
-13 0 -14 -3 -5 -12 21 -21 13 -39 -23 -54 -45 -18 -45 -28 0 -21 36 6 43 -1
23 -21 -19 -19 -66 -14 -88 8 -24 24 -26 57 -3 82 15 17 15 18 -7 18 -21 0
-22 -3 -18 -59 l4 -60 -67 1 c-68 0 -101 10 -80 22 6 4 11 27 11 52 l0 44 -65
0 -65 0 0 -665z m708 643 c22 -22 14 -48 -18 -54 -16 -4 -30 -11 -30 -16 0 -6
13 -8 30 -4 32 6 38 -2 18 -22 -17 -17 -49 -15 -76 4 -26 18 -30 65 -6 88 18
19 65 21 82 4z m246 -4 c25 -25 19 -42 -20 -54 -26 -9 -33 -15 -25 -23 9 -9
17 -8 31 1 25 15 30 15 30 -1 0 -38 -89 -40 -104 -2 -25 66 41 126 88 79z
m899 -4 c3 -11 1 -18 -4 -14 -5 3 -9 12 -9 20 0 20 7 17 13 -6z m58 -82 l24
-19 -25 12 c-26 13 -49 38 -50 53 0 6 6 2 13 -8 7 -10 24 -27 38 -38z m277
-35 c-10 -2 -28 -2 -40 0 -13 2 -5 4 17 4 22 1 32 -1 23 -4z m-869 -117 c-2
-2 -20 -11 -39 -21 l-35 -18 19 22 c11 11 28 21 39 21 11 0 18 -2 16 -4z m86
-12 c81 -6 171 -31 219 -62 28 -18 57 -32 65 -32 9 0 23 -5 31 -10 11 -7 0
-10 -39 -10 -44 0 -52 2 -42 14 9 11 6 15 -14 20 -14 4 -30 4 -35 1 -5 -3 -11
-1 -15 5 -3 5 -1 10 6 10 10 0 10 3 1 12 -15 15 -86 -16 -107 -48 -9 -13 -22
-24 -30 -24 -8 0 -15 -5 -15 -10 0 -13 -41 -29 -57 -23 -22 9 -14 31 12 37 15
4 23 11 19 17 -8 13 13 29 39 29 11 0 15 -5 11 -11 -4 -8 0 -8 15 0 28 16 27
26 -8 50 -37 27 -44 26 -35 -1 6 -21 6 -21 -10 -5 -10 9 -20 17 -23 17 -4 0
-3 -3 0 -7 4 -3 2 -12 -4 -20 -9 -10 -7 -13 7 -13 15 0 15 -3 -6 -22 -13 -12
-31 -23 -39 -25 -13 -1 -13 1 1 11 10 7 15 16 12 19 -4 3 -13 0 -21 -8 -8 -8
-20 -15 -26 -14 -9 0 -8 2 1 6 16 6 15 21 -2 38 -11 11 -20 12 -47 2 -45 -15
-46 -17 -29 -27 13 -8 11 -13 -7 -32 -13 -12 -23 -17 -23 -11 0 7 5 15 10 18
6 3 10 11 10 16 0 6 -5 7 -10 4 -6 -4 -9 -1 -8 7 3 15 3 15 -69 4 -35 -6 -50
-12 -47 -21 7 -17 -16 -31 -26 -16 -5 9 -10 8 -20 -4 -13 -16 -40 -21 -40 -7
0 4 14 16 30 25 17 10 30 22 30 28 0 5 12 9 28 9 15 0 49 8 75 17 40 14 51 15
68 4 18 -10 24 -10 39 4 21 19 60 12 60 -11 0 -17 16 -19 26 -3 3 6 -4 25 -16
42 -21 27 -21 29 -4 22 10 -5 37 -10 59 -11z m1377 -62 c-9 -24 -24 5 -17 29
8 23 8 23 15 4 4 -11 5 -26 2 -33z m-86 3 c15 -14 21 -25 15 -25 -22 0 -51 20
-51 35 0 20 5 19 36 -10z m-129 -37 c-3 -8 -6 -5 -6 6 -1 11 2 17 5 13 3 -3 4
-12 1 -19z m-1267 2 c0 -14 -28 -19 -33 -6 -3 6 4 13 14 13 10 1 19 -2 19 -7z
m477 -36 c-3 -3 -12 -4 -19 -1 -8 3 -5 6 6 6 11 1 17 -2 13 -5z m768 -7 c10
-8 20 -30 22 -53 2 -21 10 -44 17 -49 8 -6 13 -23 13 -37 -2 -20 -5 -24 -14
-16 -7 6 -10 15 -6 21 3 5 -5 18 -18 29 -16 13 -20 21 -11 25 6 2 9 9 6 15 -4
7 -9 6 -13 -1 -5 -7 -15 -3 -30 13 -19 20 -20 24 -7 29 9 4 16 2 16 -3 0 -6 8
-10 18 -9 14 0 13 3 -5 16 -23 15 -30 33 -15 33 5 0 16 -6 27 -13z m85 -7 c0
-9 -31 -23 -37 -16 -3 3 1 11 8 19 14 15 29 13 29 -3z m-1560 0 c0 -5 -4 -10
-10 -10 -5 0 -10 5 -10 10 0 6 5 10 10 10 6 0 10 -4 10 -10z m265 -13 c7 -7 6
-8 -3 -3 -7 4 -31 -2 -53 -13 -55 -29 -67 -26 -33 7 29 29 66 33 89 9z m-80 3
c-3 -5 -11 -10 -16 -10 -6 0 -7 5 -4 10 3 6 11 10 16 10 6 0 7 -4 4 -10z m542
-12 c-3 -8 -6 -5 -6 6 -1 11 2 17 5 13 3 -3 4 -12 1 -19z m-588 -9 c-22 -14
-33 -10 -19 6 7 8 17 12 22 9 6 -4 5 -10 -3 -15z m-214 -15 c-17 -17 -32 -18
-32 -1 0 6 11 13 23 13 20 2 21 0 9 -12z m376 2 c-6 -8 -21 -16 -32 -19 -21
-6 -21 -5 -3 13 23 23 53 28 35 6z m1289 4 c0 -5 -4 -10 -10 -10 -5 0 -10 5
-10 10 0 6 5 10 10 10 6 0 10 -4 10 -10z m120 -61 c0 -6 -4 -7 -10 -4 -5 3
-10 11 -10 16 0 6 5 7 10 4 6 -3 10 -11 10 -16z m-10 -55 c0 -3 -7 -1 -15 6
-8 7 -15 17 -15 22 0 5 7 3 15 -6 8 -8 15 -18 15 -22z m-125 -14 c3 -5 1 -10
-4 -10 -6 0 -11 5 -11 10 0 6 2 10 4 10 3 0 8 -4 11 -10z m-56 -40 c12 -6 18
-16 15 -22 -5 -7 -11 -5 -20 6 -9 13 -20 16 -48 10 -61 -11 -70 -62 -15 -79
22 -7 26 -25 5 -25 -8 0 -17 -6 -20 -12 -4 -7 -4 -3 -2 9 2 14 -5 28 -25 42
-16 12 -29 29 -29 37 0 11 -6 13 -22 8 -21 -6 -22 -6 -8 12 8 10 18 21 22 24
13 10 125 2 147 -10z m201 -30 c0 -5 -4 -10 -10 -10 -5 0 -10 5 -10 10 0 6 5
10 10 10 6 0 10 -4 10 -10z m-350 -30 c0 -5 -4 -10 -10 -10 -5 0 -10 5 -10 10
0 6 5 10 10 10 6 0 10 -4 10 -10z m206 -41 c8 -14 -10 -11 -32 6 -18 13 -18
14 4 8 12 -3 25 -9 28 -14z m-246 -3 c0 -3 -4 -8 -10 -11 -5 -3 -10 -1 -10 4
0 6 5 11 10 11 6 0 10 -2 10 -4z m42 -18 c-17 -17 -15 -26 6 -31 13 -4 11 -5
-5 -6 -13 0 -23 3 -23 8 0 19 12 41 23 41 7 0 7 -4 -1 -12z m193 -86 c1 -15
11 -28 29 -37 27 -15 28 -14 22 9 -5 20 -3 23 14 19 11 -3 17 -10 13 -16 -4
-6 0 -8 10 -4 10 3 17 3 17 -2 0 -19 -68 -32 -88 -16 -45 34 -54 47 -41 56 11
6 11 11 1 21 -6 6 -12 19 -12 27 0 10 6 7 18 -9 9 -14 17 -35 17 -48z m-319
21 c-7 -7 -26 7 -26 19 0 6 6 6 15 -2 9 -7 13 -15 11 -17z m19 -23 c3 -5 1
-10 -4 -10 -6 0 -11 5 -11 10 0 6 2 10 4 10 3 0 8 -4 11 -10z m215 -52 c0 -6
-6 -5 -15 2 -8 7 -15 14 -15 16 0 2 7 1 15 -2 8 -4 15 -11 15 -16z m-145 -18
c3 -5 2 -10 -4 -10 -5 0 -13 5 -16 10 -3 6 -2 10 4 10 5 0 13 -4 16 -10z m250
0 c4 -6 -5 -10 -20 -10 -21 0 -26 -4 -21 -16 5 -14 4 -15 -8 -5 -12 10 -13 16
-3 26 14 17 43 19 52 5z m-90 -9 c-3 -2 2 -12 10 -21 15 -16 13 -17 -22 -16
-45 1 -75 22 -52 37 14 9 72 9 64 0z m115 -21 c0 -5 -7 -10 -15 -10 -8 0 -15
5 -15 10 0 6 7 10 15 10 8 0 15 -4 15 -10z m-390 -35 c-7 -9 -15 -13 -17 -11
-7 7 7 26 19 26 6 0 6 -6 -2 -15z m33 -21 c-4 -10 -9 -12 -15 -6 -12 12 -1 35
12 27 5 -3 6 -13 3 -21z m247 16 c0 -5 -4 -10 -9 -10 -6 0 -13 5 -16 10 -3 6
1 10 9 10 9 0 16 -4 16 -10z m85 -8 c-3 -3 -11 0 -18 7 -9 10 -8 11 6 5 10 -3
15 -9 12 -12z m-295 -12 c0 -5 -4 -10 -10 -10 -5 0 -10 5 -10 10 0 6 5 10 10
10 6 0 10 -4 10 -10z m306 -77 c-7 -7 -26 7 -26 19 0 6 6 6 15 -2 9 -7 13 -15
11 -17z m-378 -18 c0 -14 -5 -22 -11 -18 -5 3 -16 -2 -24 -12 -15 -21 -18 -8
-3 15 6 9 5 20 -3 29 -9 12 -9 13 1 7 6 -4 12 -3 12 3 0 6 6 8 14 5 7 -3 14
-16 14 -29z m-1998 -40 c0 -8 -4 -15 -8 -15 -5 0 -9 7 -9 15 0 8 4 15 9 15 4
0 8 -7 8 -15z m2047 9 c-3 -3 -12 -4 -19 -1 -8 3 -5 6 6 6 11 1 17 -2 13 -5z
m-2247 -44 c0 -5 -2 -10 -4 -10 -3 0 -8 5 -11 10 -3 6 -1 10 4 10 6 0 11 -4
11 -10z m24 -50 c-10 -4 -21 -6 -24 -3 -8 7 24 22 34 16 5 -4 1 -10 -10 -13z
m2311 0 c3 -5 -1 -10 -9 -10 -9 0 -16 5 -16 10 0 6 4 10 9 10 6 0 13 -4 16
-10z m-2288 -85 c1 -39 -11 -47 -20 -14 -4 16 4 38 19 49 0 0 0 -16 1 -35z
m644 8 c-12 -20 -14 -14 -5 12 4 9 9 14 11 11 3 -2 0 -13 -6 -23z m-654 -90
c-3 -10 -5 -4 -5 12 0 17 2 24 5 18 2 -7 2 -21 0 -30z m2053 -2 c0 -5 3 -16 6
-25 3 -9 1 -16 -6 -16 -6 0 -9 4 -6 9 3 5 -4 11 -17 15 -18 5 -20 8 -7 16 19
12 30 13 30 1z m570 -113 c0 -4 -9 -3 -20 4 -17 11 -22 10 -30 -2 -5 -8 -10
-12 -10 -7 0 4 5 16 12 27 11 18 14 18 30 3 10 -9 18 -20 18 -25z m-290 -8
c-6 -11 -16 -18 -21 -14 -6 3 -3 12 8 20 24 18 26 17 13 -6z m-280 6 c0 -2 -7
-9 -15 -16 -13 -11 -14 -10 -9 4 5 14 24 23 24 12z m330 -26 c0 -5 -4 -10 -10
-10 -5 0 -10 5 -10 10 0 6 5 10 10 10 6 0 10 -4 10 -10z m-153 -34 c-6 -18
-52 -19 -68 0 -12 15 -12 16 8 10 12 -4 24 -2 27 3 9 13 38 2 33 -13z m-1177
-11 c0 -8 7 -21 16 -30 9 -9 14 -24 11 -37 -6 -23 17 -53 33 -43 5 3 10 0 10
-7 0 -8 9 -14 20 -15 11 -1 20 4 20 10 0 7 4 6 10 -3 8 -12 10 -12 10 -1 0 10
3 11 14 2 18 -15 108 -16 148 -1 79 29 100 44 106 70 5 22 42 80 52 80 4 0 18
-8 31 -19 22 -18 34 -61 16 -61 -5 0 -7 -7 -3 -15 3 -8 0 -15 -6 -15 -7 0 -6
-5 2 -15 10 -12 10 -15 -4 -15 -9 0 -16 -7 -16 -16 0 -9 5 -12 13 -8 8 5 9 4
2 -3 -16 -17 -243 -30 -387 -22 -66 3 -78 7 -78 22 0 9 -6 17 -14 17 -8 0 -13
8 -12 18 1 12 -6 17 -22 16 -14 0 -21 4 -18 12 3 7 -4 22 -15 35 -24 28 -24
34 2 52 23 17 59 11 59 -8z m1220 -5 c10 -6 11 -10 3 -10 -20 0 -15 -20 5 -21
16 -1 16 -2 0 -6 -10 -2 -18 -8 -18 -13 0 -5 -3 -16 -6 -25 -5 -11 -2 -16 7
-14 8 1 22 -1 32 -6 11 -4 23 -3 30 4 8 8 18 2 39 -22 19 -21 31 -28 34 -19 3
6 10 12 15 12 5 0 4 -9 -3 -19 -10 -17 -22 -19 -70 -17 -32 1 -58 0 -58 -4 0
-12 29 -45 30 -32 0 6 5 12 12 12 9 0 9 -3 0 -12 -16 -16 -15 -29 1 -27 16 3
67 -22 67 -33 0 -13 -28 -9 -34 5 -3 8 -9 6 -21 -8 -14 -18 -14 -20 2 -26 10
-4 21 -5 25 -2 4 2 5 -4 1 -14 -6 -16 -5 -16 10 -4 9 7 17 10 17 5 0 -5 5 -2
11 6 9 12 10 11 6 -8 -3 -13 -1 -20 5 -16 9 6 48 -23 48 -36 0 -9 -32 -8 -40
0 -11 11 -91 27 -96 19 -3 -5 -1 -9 4 -9 6 0 12 -7 16 -15 7 -19 4 -19 -21 3
-11 9 -18 23 -16 30 3 8 -1 10 -13 5 -14 -5 -16 -3 -11 11 4 10 2 16 -6 15 -6
-1 -25 -1 -42 1 -24 1 -26 3 -11 9 10 4 31 6 47 5 26 -2 28 0 17 20 -6 11 -16
24 -22 28 -7 5 -4 8 7 8 9 0 17 5 17 11 0 6 -8 8 -19 4 -11 -3 -22 -1 -26 5
-3 5 1 10 9 10 25 0 19 28 -11 57 -22 20 -24 25 -8 18 11 -4 29 -9 40 -12 17
-4 17 -2 -5 16 -14 11 -28 21 -32 21 -5 0 -8 6 -8 13 0 7 -9 19 -19 27 -11 7
-18 18 -15 22 3 5 12 4 20 -3 19 -15 30 -4 15 15 -9 11 -9 15 1 19 19 8 22 8
38 -3z m260 -12 c0 -10 -2 -18 -4 -18 -2 0 -12 -3 -22 -7 -13 -5 -15 -3 -9 8
7 10 1 9 -18 -4 -29 -19 -37 -8 -12 16 8 8 12 17 10 19 -3 3 9 5 25 5 22 0 30
-5 30 -19z m-130 2 c0 -5 -7 -10 -16 -10 -8 0 -12 5 -9 10 3 6 10 10 16 10 5
0 9 -4 9 -10z m220 -20 c0 -5 -4 -10 -10 -10 -5 0 -10 5 -10 10 0 6 5 10 10
10 6 0 10 -4 10 -10z m-20 -40 c0 -5 -2 -10 -4 -10 -3 0 -8 5 -11 10 -3 6 -1
10 4 10 6 0 11 -4 11 -10z m-210 -20 c0 -13 -5 -18 -15 -14 -16 7 -19 17 -8
27 12 13 23 7 23 -13z m-1500 -115 c-5 -14 -7 -32 -4 -40 5 -11 2 -13 -10 -9
-9 3 -14 9 -11 14 2 4 -4 16 -15 27 -17 19 -17 22 -3 36 25 25 55 5 43 -28z
m-210 14 c0 -5 -4 -9 -10 -9 -5 0 -10 7 -10 16 0 8 5 12 10 9 6 -3 10 -10 10
-16z m770 -17 c0 -40 -11 -47 -32 -20 l-18 23 -1 -25 c-1 -14 -1 -32 0 -40 2
-12 0 -13 -8 -1 -6 10 -18 12 -37 6 -48 -12 -123 -17 -142 -10 -9 4 -32 8 -51
10 -35 2 -71 33 -71 61 0 16 16 19 25 4 3 -5 19 -7 34 -4 17 4 32 1 36 -5 5
-9 10 -9 21 0 11 9 21 9 40 1 19 -9 29 -9 44 0 16 10 24 10 40 1 12 -8 21 -9
25 -3 3 6 17 10 30 10 13 0 27 5 30 10 13 21 35 10 35 -18z m135 8 c3 -5 11
-7 18 -4 9 3 13 -5 12 -23 -1 -15 1 -32 4 -37 10 -21 7 -56 -6 -52 -8 4 -12
-5 -12 -27 1 -48 -9 -80 -27 -90 -13 -7 -14 -11 -4 -17 10 -6 6 -15 -16 -35
-28 -26 -28 -26 -5 -21 l23 5 -21 -20 c-13 -13 -20 -28 -16 -38 7 -22 -25 -24
-41 -3 -10 14 -12 13 -18 -6 -4 -12 -14 -22 -22 -22 -8 0 -17 -7 -20 -15 -4
-8 -10 -13 -14 -10 -4 3 -13 -2 -20 -10 -7 -8 -20 -15 -30 -15 -9 0 -29 -9
-44 -21 -31 -24 -92 -31 -108 -12 -6 7 -22 13 -36 13 -17 0 -39 15 -71 50 -25
28 -53 50 -61 50 -13 0 -13 1 0 10 13 9 10 14 -15 35 -17 14 -24 25 -16 25 12
0 11 3 -1 18 -9 9 -18 26 -20 37 -2 11 -10 19 -16 17 -9 -1 -10 2 -1 16 8 12
9 30 4 48 -5 16 -8 32 -7 37 1 4 -3 6 -9 5 -7 -2 -15 10 -20 26 -7 24 -4 32
11 43 12 8 17 20 13 30 -10 26 38 -10 62 -47 25 -39 119 -95 143 -85 14 6 13
9 -8 16 -14 5 -31 18 -38 29 -12 20 -11 20 30 13 24 -5 70 -7 103 -6 76 2 187
10 200 13 6 1 13 2 17 2 3 -1 23 18 45 42 40 47 48 52 58 36z m635 0 c0 -5 -5
-10 -11 -10 -5 0 -7 5 -4 10 3 6 8 10 11 10 2 0 4 -4 4 -10z m-43 -25 c-4 -8
-2 -17 3 -20 6 -4 10 -11 10 -17 0 -7 -9 -2 -20 10 -12 12 -26 22 -33 22 -17
0 14 20 32 20 7 0 11 -6 8 -15z m-272 -25 c-3 -5 -12 -10 -18 -10 -7 0 -6 4 3
10 19 12 23 12 15 0z m30 -20 c3 -5 -1 -10 -9 -10 -9 0 -16 5 -16 10 0 6 4 10
9 10 6 0 13 -4 16 -10z m41 -27 c-7 -7 -26 7 -26 19 0 6 6 6 15 -2 9 -7 13
-15 11 -17z m134 15 c0 -4 -11 -10 -24 -14 -14 -3 -27 -12 -30 -20 -7 -18 -26
-18 -26 1 0 9 -6 12 -15 9 -24 -10 -17 10 8 21 27 12 87 14 87 3z m507 -54
c-9 -9 -28 6 -21 18 4 6 10 6 17 -1 6 -6 8 -13 4 -17z m-969 -14 c-14 -22 -24
-19 -15 5 4 8 11 15 17 15 6 0 6 -7 -2 -20z m572 10 c0 -5 -5 -10 -11 -10 -5
0 -7 5 -4 10 3 6 8 10 11 10 2 0 4 -4 4 -10z m40 6 c0 -3 -4 -8 -10 -11 -5 -3
-10 -1 -10 4 0 6 5 11 10 11 6 0 10 -2 10 -4z m-223 -52 c-9 -10 -38 16 -31
28 4 6 13 4 22 -6 9 -8 13 -19 9 -22z m473 21 c-7 -8 -16 -12 -21 -9 -13 8 -1
24 18 24 13 0 13 -3 3 -15z m-724 -31 c-4 -9 -9 -15 -11 -12 -3 3 -3 13 1 22
4 9 9 15 11 12 3 -3 3 -13 -1 -22z m781 -21 c-11 -10 -37 12 -37 31 1 21 1 21
21 -3 11 -13 18 -26 16 -28z m-553 -2 c4 -5 0 -11 -6 -14 -10 -4 -11 -7 0 -18
18 -19 15 -24 -13 -27 -25 -2 -34 11 -15 23 16 10 11 25 -6 18 -8 -3 -20 -16
-25 -29 -9 -26 -29 -33 -29 -10 0 17 56 66 75 66 8 0 16 -4 19 -9z m121 -1
c-3 -5 -12 -7 -20 -3 -21 7 -19 13 6 13 11 0 18 -4 14 -10z m-85 -32 c0 -5 -4
-8 -10 -8 -5 0 -10 10 -10 23 0 18 2 19 10 7 5 -8 10 -18 10 -22z m54 3 c3 -5
-1 -14 -9 -21 -13 -10 -15 -9 -15 9 0 21 14 28 24 12z m-348 -16 c10 -8 15
-15 9 -15 -5 0 -4 -4 4 -9 10 -7 19 -4 26 6 10 14 13 13 19 -10 3 -15 11 -27
16 -27 5 0 7 -7 4 -15 -4 -8 -1 -15 6 -15 6 0 10 -6 7 -12 -2 -7 0 -20 4 -30
7 -13 5 -15 -10 -11 -11 3 -17 11 -15 18 3 7 -2 19 -10 28 -9 9 -16 22 -17 29
0 10 -2 10 -6 1 -2 -7 -10 -13 -15 -13 -6 0 -9 3 -5 6 3 3 0 12 -6 19 -9 10
-15 10 -26 1 -12 -9 -13 -8 -8 7 4 11 1 20 -8 23 -7 3 -11 12 -8 20 7 18 14
18 39 -1z m723 -77 l11 -31 -22 19 c-13 10 -25 20 -27 21 -6 3 10 23 19 23 4
0 13 -14 19 -32z m-1999 -101 c0 -2 -10 -12 -22 -23 l-23 -19 19 23 c18 21 26
27 26 19z m1265 -18 c-26 -5 -28 -7 -10 -13 53 -19 179 -89 145 -80 -14 3 -45
19 -69 35 -25 16 -50 29 -58 29 -7 0 -22 5 -32 12 -18 11 -18 13 -4 24 9 6 26
9 37 6 18 -5 17 -7 -9 -13z m-1334 -39 c-13 -11 -28 -20 -35 -20 -6 0 3 9 19
20 38 25 47 25 16 0z m-326 -25 c-5 -2 -23 -6 -39 -10 -16 -3 -42 -20 -58 -37
-27 -30 -39 -28 -15 2 23 29 61 50 92 49 16 0 26 -2 20 -4z m234 -20 c-73 -53
-95 -65 -119 -64 -21 1 -20 2 7 9 36 8 83 36 83 49 0 4 10 13 23 19 38 19 41
13 6 -13z m-63 0 c-8 -8 -18 -15 -22 -15 -3 0 -1 7 6 15 7 8 17 15 22 15 5 0
3 -7 -6 -15z m-197 -7 c-2 -2 -17 -14 -33 -28 -16 -14 -26 -18 -21 -10 16 29
28 40 43 40 8 0 13 -1 11 -2z m1951 -40 c36 -20 31 -19 -55 13 -40 15 -43 18
-15 13 19 -4 51 -15 70 -26z m566 4 c-18 -16 -18 -16 -6 6 6 13 14 21 18 18 3
-4 -2 -14 -12 -24z m-1636 8 c0 -5 -2 -10 -4 -10 -3 0 -8 5 -11 10 -3 6 -1 10
4 10 6 0 11 -4 11 -10z m1130 -10 c0 -5 -2 -10 -4 -10 -3 0 -8 5 -11 10 -3 6
-1 10 4 10 6 0 11 -4 11 -10z m40 -35 c40 -11 153 -65 148 -70 -3 -3 -39 11
-81 30 -42 19 -82 35 -89 35 -7 0 -20 5 -28 11 -16 11 -9 10 50 -6z m366 -52
c-7 -7 -26 7 -26 19 0 6 6 6 15 -2 9 -7 13 -15 11 -17z m-133 -50 c16 -8 27
-17 24 -19 -3 -3 -27 6 -54 21 -49 26 -22 25 30 -2z m-1473 -12 c0 -5 20 -34
46 -65 25 -31 41 -56 36 -56 -5 0 -27 24 -49 53 -51 68 -56 77 -44 77 6 0 11
-4 11 -9z m506 -178 c-2 -3 -10 -2 -16 2 -9 6 -9 10 1 16 11 7 11 9 -1 9 -13
0 -13 1 0 10 11 7 16 5 18 -11 2 -11 1 -23 -2 -26z m1214 -35 c11 -12 20 -26
20 -31 0 -9 -14 4 -39 36 -19 24 -6 21 19 -5z m-1510 -23 c7 -9 8 -15 2 -15
-5 0 -12 7 -16 15 -3 8 -4 15 -2 15 2 0 9 -7 16 -15z"/>
<path d="M657 2763 c-12 -11 -8 -23 8 -23 8 0 15 7 15 15 0 16 -12 20 -23 8z"/>
<path d="M903 2755 c-3 -9 -3 -18 0 -21 9 -9 27 6 27 22 0 19 -19 18 -27 -1z"/>
<path d="M1495 2481 c-3 -5 -1 -12 5 -16 5 -3 10 1 10 9 0 18 -6 21 -15 7z"/>
<path d="M1210 2470 c0 -5 5 -10 10 -10 6 0 10 5 10 10 0 6 -4 10 -10 10 -5 0
-10 -4 -10 -10z"/>
<path d="M2440 1095 c0 -10 29 -24 34 -17 3 6 -3 12 -14 15 -11 3 -20 4 -20 2z"/>
<path d="M1190 889 c0 -29 116 -95 152 -86 10 3 18 0 18 -6 0 -7 17 -13 40
-13 21 -1 39 1 38 5 -2 18 3 25 10 13 17 -26 172 55 172 90 0 6 -9 3 -19 -6
-34 -30 -100 -43 -208 -40 -83 3 -111 8 -152 28 -28 13 -51 20 -51 15z"/>
<path d="M1700 870 c0 -13 5 -18 14 -14 8 3 12 12 9 20 -8 21 -23 17 -23 -6z"/>
<path d="M1700 809 c0 -5 5 -7 10 -4 6 3 10 8 10 11 0 2 -4 4 -10 4 -5 0 -10
-5 -10 -11z"/>
<path d="M188 2793 c7 -3 16 -2 19 1 4 3 -2 6 -13 5 -11 0 -14 -3 -6 -6z"/>
<path d="M452 2748 c4 -67 22 -65 26 2 2 40 0 50 -13 50 -13 0 -15 -10 -13
-52z"/>
<path d="M518 2793 c7 -3 16 -2 19 1 4 3 -2 6 -13 5 -11 0 -14 -3 -6 -6z"/>
<path d="M316 2765 c-4 -10 1 -15 14 -15 11 0 20 7 20 15 0 8 -6 15 -14 15 -8
0 -16 -7 -20 -15z"/>
<path d="M182 2735 c2 -14 8 -26 13 -26 6 0 11 12 13 26 2 18 -1 25 -13 25
-12 0 -15 -7 -13 -25z"/>
<path d="M925 2262 c-5 -4 -19 -18 -30 -31 l-20 -23 34 19 c19 10 36 24 39 31
4 13 -8 16 -23 4z"/>
<path d="M901 2206 c-22 -26 -48 -84 -37 -80 6 2 21 23 34 46 23 42 24 60 3
34z"/>
<path d="M2668 2087 c8 -9 22 -19 33 -22 10 -4 19 -11 19 -16 0 -6 -7 -6 -19
1 -28 14 -30 13 -23 -12 9 -34 31 -53 45 -39 16 16 32 14 18 -2 -6 -8 -8 -17
-4 -20 8 -9 43 -9 43 -1 0 13 -71 114 -80 114 -4 0 -17 3 -27 7 -16 6 -16 5
-5 -10z"/>
<path d="M2756 2071 c-3 -5 4 -11 16 -14 30 -8 35 -1 9 12 -11 6 -22 7 -25 2z"/>
<path d="M2750 2044 c0 -8 32 -33 43 -34 14 0 7 28 -9 34 -20 8 -34 8 -34 0z"/>
<path d="M2780 1940 c0 -5 5 -10 10 -10 6 0 10 5 10 10 0 6 -4 10 -10 10 -5 0
-10 -4 -10 -10z"/>
<path d="M887 1863 c-4 -3 -7 -11 -7 -17 0 -6 5 -5 12 2 6 6 9 14 7 17 -3 3
-9 2 -12 -2z"/>
<path d="M1594 1794 c-13 -7 -24 -9 -24 -3 0 13 -41 11 -73 -3 -15 -7 -27 -19
-27 -25 0 -7 -9 -22 -20 -33 -21 -21 -26 -55 -10 -65 6 -3 10 -21 11 -38 1
-42 12 -70 30 -73 8 -1 41 -13 74 -25 44 -16 79 -22 130 -21 103 2 126 5 121
19 -3 7 4 15 15 18 10 4 17 10 14 15 -3 4 11 11 30 14 20 4 33 11 30 15 -2 5
5 12 18 15 21 7 21 8 3 15 -13 5 -16 10 -8 15 6 3 8 14 5 23 -3 9 -7 28 -9 42
-1 14 -2 29 -3 32 -1 3 -17 22 -36 42 l-35 36 -106 -1 c-63 -1 -116 -7 -130
-14z m182 -81 c-4 -9 -1 -21 6 -26 9 -6 6 -7 -7 -2 -11 4 -39 10 -62 12 -72 9
-48 27 41 32 22 1 27 -2 22 -16z m-47 -36 c29 -12 28 -13 -34 -12 -36 0 -65 1
-65 3 0 4 43 21 56 21 7 1 26 -5 43 -12z m-109 -67 c0 -5 -4 -10 -10 -10 -5 0
-10 5 -10 10 0 6 5 10 10 10 6 0 10 -4 10 -10z m-110 -20 c-6 -11 -15 -18 -21
-14 -6 4 -6 11 2 20 17 21 31 17 19 -6z m98 -13 c7 -5 12 -4 12 2 0 7 22 11
53 10 28 0 46 -3 39 -6 -10 -4 -10 -8 0 -21 11 -13 10 -14 -9 -4 -27 15 -43
15 -43 2 0 -5 11 -10 25 -10 14 0 25 -5 25 -10 0 -11 -39 -7 -107 11 -23 6
-54 9 -68 7 -26 -5 -37 16 -13 24 20 7 72 3 86 -5z m151 -23 c-28 -30 -36 -30
-33 -1 1 12 3 22 3 22 1 0 13 1 27 1 l26 2 -23 -24z"/>
<path d="M966 1790 c-33 -10 -59 -40 -98 -111 -31 -55 -36 -89 -13 -89 8 0 12
-6 10 -13 -3 -7 9 -18 27 -25 18 -8 44 -18 58 -24 l25 -10 -24 -13 c-21 -11
-7 -12 100 -11 96 1 131 6 154 19 17 9 36 17 43 17 23 0 7 24 -21 31 -15 4
-27 4 -27 0 0 -3 -15 -12 -32 -19 -29 -11 -35 -10 -46 5 -7 10 -18 17 -23 16
-5 -2 -9 2 -9 7 0 6 14 10 30 10 18 0 33 6 36 15 4 8 11 15 17 15 6 0 -2 -13
-18 -30 -16 -16 -23 -30 -17 -30 7 0 12 3 12 8 0 13 44 27 78 24 20 -2 32 -9
32 -18 0 -18 21 -18 45 0 13 9 20 28 22 58 2 23 4 57 5 73 2 23 -2 32 -19 40
-12 5 -24 17 -26 26 -3 12 -11 16 -26 12 -13 -3 -21 -1 -21 7 0 7 -6 10 -14 7
-8 -3 -17 -1 -19 6 -3 9 -9 9 -25 0 -13 -8 -23 -9 -27 -3 -7 12 -149 12 -189
0z m160 -102 c2 -2 -23 -9 -56 -14 -60 -10 -75 -1 -36 22 17 10 79 4 92 -8z
m-256 -62 c0 -3 -4 -8 -10 -11 -5 -3 -10 -1 -10 4 0 6 5 11 10 11 6 0 10 -2
10 -4z m420 -46 c0 -17 -15 -11 -28 11 -12 19 -11 19 8 9 11 -6 20 -15 20 -20z
m-210 -36 c0 -2 -7 -4 -15 -4 -8 0 -15 4 -15 10 0 5 7 7 15 4 8 -4 15 -8 15
-10z m30 -8 c0 -3 -4 -8 -10 -11 -5 -3 -10 -1 -10 4 0 6 5 11 10 11 6 0 10 -2
10 -4z"/>
<path d="M500 1569 c0 -5 5 -7 10 -4 6 3 10 8 10 11 0 2 -4 4 -10 4 -5 0 -10
-5 -10 -11z"/>
<path d="M524 1559 c-3 -5 -15 -7 -26 -3 -19 6 -20 3 -14 -22 4 -15 18 -41 32
-57 14 -16 23 -32 20 -34 -3 -3 -16 7 -29 22 -13 16 -32 29 -43 30 -11 0 -25
4 -32 9 -13 8 -42 -9 -42 -25 0 -5 12 -15 28 -23 24 -14 25 -15 6 -16 -23 0
-47 22 -50 47 -3 20 -12 28 -21 18 -5 -4 -3 -10 3 -12 7 -2 10 -12 7 -22 -3
-10 0 -22 6 -25 20 -13 12 -27 -8 -16 -27 14 -41 13 -35 -4 3 -8 1 -17 -5 -21
-7 -4 -11 4 -11 20 0 14 -4 24 -9 21 -5 -3 -15 2 -22 10 -12 14 -11 19 9 32
12 8 22 21 22 28 0 19 -29 18 -36 -1 -10 -24 -36 -18 -32 7 2 18 -2 22 -22 22
-33 0 -39 -30 -11 -55 22 -21 28 -39 12 -39 -5 0 -7 -8 -4 -19 3 -10 0 -22 -6
-25 -6 -4 -11 -1 -12 6 0 7 -4 4 -9 -8 -4 -11 -6 -58 -4 -105 3 -46 5 -101 6
-121 1 -21 6 -38 11 -38 5 0 4 -6 -2 -14 -9 -11 -9 -19 1 -36 12 -21 18 -22
127 -17 107 5 115 7 135 31 12 16 34 28 52 30 43 4 54 13 54 41 0 17 -4 23
-14 19 -23 -9 -25 9 -7 66 17 52 26 62 64 74 15 5 15 9 5 25 -9 15 -9 23 1 35
7 9 18 13 23 10 6 -4 6 -10 -1 -17 -17 -17 -13 -35 9 -42 29 -9 25 -28 -5 -21
-16 4 -25 2 -25 -5 0 -6 -6 -9 -14 -6 -13 5 -26 -12 -26 -34 0 -13 27 -11 50
4 17 10 22 9 30 -3 8 -12 11 -13 19 -1 7 11 9 11 14 0 4 -10 8 -11 14 -3 4 6
16 13 26 17 9 3 17 16 17 27 0 22 -22 51 -37 50 -25 -3 -45 10 -39 25 3 9 2
13 -3 10 -17 -10 -21 12 -6 25 14 11 13 15 -5 27 -11 8 -17 19 -13 26 3 6 -7
1 -24 -11 -32 -23 -73 -30 -73 -12 0 5 6 7 14 4 8 -3 16 -2 19 3 9 15 -12 53
-30 53 -13 0 -14 3 -5 12 7 7 12 15 12 19 0 12 -29 19 -36 8z m3 -41 c-3 -8
-6 -5 -6 6 -1 11 2 17 5 13 3 -3 4 -12 1 -19z m31 -33 c-3 -3 -9 2 -12 12 -6
14 -5 15 5 6 7 -7 10 -15 7 -18z m-89 -14 c9 -6 10 -11 2 -15 -6 -4 -21 0 -33
8 -21 15 -21 16 -3 16 11 0 26 -4 34 -9z m181 -41 c0 -5 -7 -10 -15 -10 -8 0
-15 5 -15 10 0 6 7 10 15 10 8 0 15 -4 15 -10z m-50 -10 c0 -5 -7 -7 -15 -4
-8 4 -15 8 -15 10 0 2 7 4 15 4 8 0 15 -4 15 -10z m-90 -59 c0 -5 -7 -14 -15
-21 -12 -10 -19 -10 -28 -1 -9 9 -9 14 3 21 19 12 40 13 40 1z m50 -30 c-1 -3
-9 -22 -18 -41 -16 -32 -21 -35 -61 -35 -23 0 -48 3 -53 6 -17 11 0 28 22 22
28 -7 25 7 -7 34 -16 12 -22 22 -15 23 6 0 12 -4 12 -10 0 -5 7 -10 15 -10 8
0 20 -9 27 -20 7 -11 16 -20 19 -20 9 0 30 51 24 60 -3 4 4 6 15 3 11 -3 20
-8 20 -12z m150 10 c0 -12 -20 -25 -27 -18 -7 7 6 27 18 27 5 0 9 -4 9 -9z
m20 -21 c0 -5 -4 -10 -10 -10 -5 0 -10 5 -10 10 0 6 5 10 10 10 6 0 10 -4 10
-10z m-375 -39 c4 -10 -1 -21 -14 -30 -26 -17 -27 -31 -2 -24 21 5 25 0 35
-42 7 -30 7 -30 -9 -7 -18 25 -45 30 -45 7 0 -8 5 -15 11 -15 5 0 7 -4 4 -10
-3 -5 -18 -10 -32 -10 -22 0 -24 3 -19 25 7 28 -7 33 -30 10 -26 -25 -43 -12
-31 23 1 4 9 6 19 5 9 -1 22 4 28 12 10 12 8 18 -10 33 -32 26 -21 37 38 38
39 2 52 -2 57 -15z m110 -65 c8 4 15 10 15 15 0 5 9 9 20 9 14 0 20 -7 20 -24
0 -18 -7 -25 -27 -29 -16 -3 -33 -1 -40 5 -7 5 -16 7 -22 4 -11 -7 -24 22 -15
35 3 5 12 3 20 -5 8 -9 21 -13 29 -10z m40 -56 c3 -5 1 -10 -4 -10 -6 0 -11 5
-11 10 0 6 2 10 4 10 3 0 8 -4 11 -10z"/>
<path d="M704 1468 c3 -7 7 -25 10 -40 4 -16 13 -28 21 -28 17 0 18 4 6 28 -5
9 -12 25 -15 35 -3 9 -10 17 -15 17 -6 0 -9 -6 -7 -12z"/>
<path d="M115 1230 c3 -5 10 -10 16 -10 5 0 9 5 9 10 0 6 -7 10 -16 10 -8 0
-12 -4 -9 -10z"/>
<path d="M81 1185 c0 -35 1 -37 10 -17 6 15 5 30 -1 40 -7 13 -9 8 -9 -23z"/>
<path d="M630 1190 c0 -5 7 -7 15 -4 8 4 15 8 15 10 0 2 -7 4 -15 4 -8 0 -15
-4 -15 -10z"/>
<path d="M592 1168 c-18 -18 -14 -38 8 -38 21 0 26 16 12 37 -6 10 -11 10 -20
1z"/>
<path d="M104 1101 c3 -5 15 -7 26 -4 28 7 25 13 -6 13 -14 0 -23 -4 -20 -9z"/>
<path d="M740 749 c0 -5 5 -7 10 -4 6 3 10 8 10 11 0 2 -4 4 -10 4 -5 0 -10
-5 -10 -11z"/>
<path d="M1070 365 c0 -8 4 -15 10 -15 5 0 7 7 4 15 -4 8 -8 15 -10 15 -2 0
-4 -7 -4 -15z"/>
<path d="M1244 253 c10 -11 37 -12 30 -2 -3 5 -12 9 -21 9 -9 0 -13 -3 -9 -7z"/>
<path d="M1400 66 c0 -9 5 -16 10 -16 6 0 10 4 10 9 0 6 -4 13 -10 16 -5 3
-10 -1 -10 -9z"/>
<path d="M1426 55 c-3 -9 -16 -20 -28 -25 -13 -5 -17 -9 -10 -9 7 -1 11 -5 8
-9 -10 -17 46 -11 76 9 18 11 26 19 18 18 -22 -3 -51 12 -44 22 3 5 1 9 -4 9
-6 0 -12 -7 -16 -15z"/>
<path d="M1530 25 c-7 -9 -8 -15 -2 -15 5 0 12 7 16 15 3 8 4 15 2 15 -2 0 -9
-7 -16 -15z"/>
<path d="M1485 10 c-3 -5 -2 -10 4 -10 5 0 13 5 16 10 3 6 2 10 -4 10 -5 0
-13 -4 -16 -10z"/>
</g>
</svg>
